<?xml version="1.0" standalone="no"?>
<!DOCTYPE svg PUBLIC "-//W3C//DTD SVG 20010904//EN"
 "http://www.w3.org/TR/2001/REC-SVG-20010904/DTD/svg10.dtd">
<svg version="1.0" xmlns="http://www.w3.org/2000/svg"
 width="1088.000000pt" height="1088.000000pt" viewBox="0 0 1088.000000 1088.000000"
 preserveAspectRatio="xMidYMid meet">
<metadata>
Created by potrace 1.14, written by Peter Selinger 2001-2017
</metadata>
<g transform="translate(0.000000,1088.000000) scale(0.100000,-0.100000)"
fill="#000000" stroke="none">
<path d="M2 7413 l3 -1748 490 0 490 0 2 510 c1 281 2 517 2 526 1 13 22 16
156 16 125 0 155 -2 155 -13 0 -8 4 -14 8 -14 4 0 16 -15 27 -32 10 -18 21
-35 24 -38 4 -3 24 -32 46 -65 45 -67 46 -69 79 -109 13 -16 30 -41 38 -55 7
-14 21 -33 30 -42 10 -9 18 -19 18 -23 0 -3 14 -25 30 -49 17 -23 37 -51 44
-62 8 -11 40 -55 70 -98 31 -43 56 -82 56 -87 0 -4 4 -10 8 -12 7 -3 81 -104
107 -147 6 -9 22 -32 37 -52 16 -20 28 -41 28 -47 0 -7 3 -12 8 -12 4 0 21
-21 37 -45 17 -25 35 -46 40 -46 38 -5 2229 -3 2237 2 5 3 9 9 8 13 -1 6 39
119 64 181 7 17 19 46 26 65 7 19 18 49 25 65 7 17 21 54 31 83 10 28 23 52
28 53 41 3 1207 1 1210 -2 1 -2 21 -53 44 -114 94 -253 125 -331 134 -340 10
-11 1108 -15 1108 -4 0 6 -89 241 -114 300 -8 20 -12 39 -9 43 4 3 1 6 -5 6
-7 0 -12 6 -12 13 0 7 -16 53 -35 103 -19 49 -44 112 -54 139 -10 28 -22 59
-27 70 -4 11 -6 23 -6 28 1 4 -2 7 -8 7 -5 0 -10 6 -10 14 0 15 -88 249 -121
323 -10 24 -19 46 -19 49 0 9 -79 214 -91 236 -5 10 -9 22 -9 28 0 6 -8 29
-19 53 -10 23 -29 69 -41 102 -12 33 -26 69 -30 80 -5 11 -31 79 -58 150 -27
72 -53 139 -57 150 -5 11 -9 22 -9 25 -1 3 -15 41 -33 85 -36 93 -216 560
-263 685 -17 47 -36 89 -40 94 -5 5 -6 15 -3 22 3 8 0 14 -6 14 -6 0 -10 3 -9
8 0 4 -2 15 -5 25 -10 25 -16 46 -16 52 0 3 -7 18 -15 33 -8 15 -28 63 -44
107 -17 44 -54 140 -82 213 -29 73 -53 138 -54 145 -1 7 -10 29 -19 50 l-16
37 -557 -2 -558 -3 -46 -117 c-26 -65 -46 -118 -44 -118 2 0 -10 -31 -46 -115
-29 -69 -100 -261 -100 -272 0 -7 -4 -13 -8 -13 -5 0 -9 -6 -9 -14 0 -13 -45
-132 -64 -168 -5 -10 -9 -22 -9 -27 0 -5 -7 -25 -15 -45 -8 -20 -15 -38 -15
-41 0 -3 -7 -19 -15 -35 -9 -17 -13 -30 -9 -30 4 0 2 -6 -4 -13 -6 -7 -20 -39
-32 -72 -12 -33 -28 -74 -36 -92 -8 -17 -14 -37 -14 -45 0 -8 -4 -18 -8 -24
-5 -5 -24 -49 -42 -99 -18 -49 -40 -104 -47 -122 -8 -17 -16 -37 -17 -45 -1
-7 -10 -31 -20 -53 -10 -22 -19 -44 -20 -50 -2 -5 -6 -17 -9 -25 -4 -8 -22
-58 -42 -110 -19 -52 -39 -104 -44 -115 -10 -21 -65 -166 -66 -175 -1 -3 -6
-16 -12 -30 -6 -14 -19 -45 -28 -70 -10 -25 -24 -59 -31 -77 -8 -17 -14 -36
-14 -42 0 -6 -4 -19 -10 -29 -5 -9 -24 -57 -43 -107 -19 -49 -38 -99 -42 -110
-5 -11 -9 -22 -9 -25 -2 -8 -27 -71 -41 -105 -17 -39 -63 -160 -78 -205 -6
-19 -14 -37 -17 -40 -3 -3 -6 -9 -7 -15 -1 -5 -28 -80 -61 -165 -61 -157 -73
-191 -74 -200 0 -3 -5 -14 -11 -25 -6 -11 -25 -58 -42 -104 -17 -47 -36 -86
-41 -88 -5 -1 -20 13 -34 33 -14 19 -30 41 -36 47 -6 7 -17 23 -24 37 -14 27
-19 33 -55 74 -14 16 -25 35 -25 41 0 7 -7 15 -15 19 -8 3 -15 11 -15 18 0 7
-10 24 -23 38 -13 14 -26 32 -30 40 -4 8 -23 35 -42 60 -19 25 -38 52 -42 60
-4 8 -12 20 -17 27 -20 22 -31 38 -59 81 -15 23 -34 50 -42 60 -8 9 -60 82
-115 162 -56 80 -107 154 -115 165 -8 11 -44 62 -80 112 l-65 93 58 30 c130
69 218 135 311 234 25 26 56 58 69 69 12 11 22 24 22 29 0 7 59 98 71 108 24
21 121 275 133 350 3 19 8 46 11 60 16 86 21 272 9 360 -9 67 -35 188 -47 220
-3 8 -11 32 -17 53 -13 40 -88 199 -99 207 -3 3 -15 21 -25 40 -11 19 -25 40
-30 47 -6 6 -40 44 -76 85 -36 40 -87 91 -115 113 -62 49 -175 126 -175 119 0
-3 -12 3 -27 14 -53 36 -234 106 -332 127 -73 17 -107 23 -156 32 -22 4 -460
8 -973 10 l-932 4 2 -1748z m1708 839 c171 -41 280 -159 282 -305 1 -89 -34
-172 -95 -226 -51 -44 -64 -52 -116 -72 -82 -31 -105 -33 -465 -34 l-329 0 0
300 c1 165 2 311 2 325 l1 25 338 -1 c203 -1 355 -6 382 -12z m3376 -617 c10
-27 19 -52 20 -55 0 -3 5 -16 11 -30 29 -67 63 -156 63 -163 0 -5 7 -23 15
-40 18 -41 165 -423 175 -459 8 -28 -1 -35 -34 -29 -5 1 -144 2 -308 1 -164 0
-298 2 -298 5 0 3 20 57 45 121 25 63 45 119 45 124 0 6 5 10 10 10 6 0 9 3 8
8 -2 10 13 65 22 77 4 6 11 21 15 35 4 14 13 39 20 55 39 92 105 267 105 280
0 8 4 15 8 15 4 0 14 21 21 48 23 79 27 78 57 -3z"/>
<path d="M6964 7413 l1 -1748 490 0 490 0 5 930 5 930 59 -105 c33 -58 68
-117 78 -132 11 -16 17 -28 14 -28 -3 0 10 -25 29 -55 19 -30 35 -57 35 -61 0
-3 15 -32 34 -63 18 -31 46 -78 61 -106 16 -27 43 -77 62 -110 19 -33 37 -68
40 -77 3 -10 10 -18 15 -18 5 0 7 -4 3 -9 -3 -5 -1 -12 4 -16 5 -3 16 -18 24
-33 15 -29 48 -89 77 -137 9 -16 31 -55 47 -85 17 -30 40 -73 53 -95 13 -22
34 -60 48 -85 85 -152 168 -300 188 -335 13 -22 31 -55 39 -74 20 -40 9 -53
125 154 46 83 87 152 90 155 3 3 6 12 8 20 2 8 10 22 18 31 8 8 14 18 14 21 0
4 18 37 39 75 79 138 102 179 119 213 9 19 19 37 22 40 3 3 42 70 86 150 45
80 94 168 109 195 42 72 83 146 97 175 7 14 15 27 18 30 3 3 14 21 23 40 10
19 29 53 43 75 13 22 29 51 34 64 6 13 20 37 31 52 11 16 17 29 13 29 -4 0 0
8 8 18 9 9 25 35 36 57 l21 40 1 -45 c1 -25 2 -445 3 -935 l2 -890 490 0 490
0 2 1748 2 1747 -494 0 -493 0 -33 -57 c-17 -32 -41 -74 -52 -93 -11 -19 -41
-73 -67 -120 -26 -47 -57 -101 -68 -120 -12 -19 -34 -60 -50 -90 -28 -53 -183
-329 -202 -360 -5 -8 -18 -32 -29 -52 -11 -21 -69 -124 -129 -230 -60 -106
-124 -220 -142 -253 -18 -33 -50 -89 -70 -125 -20 -36 -50 -87 -65 -114 l-28
-49 -18 24 c-10 13 -28 44 -40 69 -13 25 -44 82 -71 128 -26 46 -48 88 -48 93
0 5 -4 9 -10 9 -5 0 -10 5 -10 10 0 9 -111 215 -140 260 -6 8 -13 22 -17 30
-4 8 -19 35 -33 61 -27 45 -47 80 -110 194 -18 33 -43 76 -54 95 -12 19 -28
49 -36 65 -8 17 -22 41 -31 55 -9 14 -29 50 -46 80 -31 57 -57 103 -128 230
-23 41 -54 98 -70 125 -15 28 -38 69 -52 93 l-25 42 -492 0 -493 0 1 -1747z"/>
<path d="M0 3490 l0 -1746 453 0 452 1 2 425 c1 234 3 443 3 465 0 31 8 48 33
76 17 19 44 51 59 70 15 18 39 48 53 64 15 17 61 72 103 123 42 50 79 92 82
92 4 0 13 -12 21 -27 8 -16 17 -32 22 -38 26 -35 87 -134 87 -142 0 -6 9 -18
20 -28 11 -10 20 -24 20 -32 0 -7 5 -13 10 -13 6 0 10 -4 10 -10 0 -9 69 -123
90 -147 5 -7 10 -14 10 -17 0 -7 140 -229 159 -252 5 -6 12 -20 15 -32 4 -12
11 -22 16 -22 5 0 10 -6 12 -12 2 -7 39 -70 83 -141 44 -70 85 -135 90 -145 6
-9 23 -37 39 -62 16 -25 41 -63 54 -85 14 -22 36 -56 49 -75 l23 -35 539 -1
c513 -1 538 0 534 17 -3 10 -11 24 -19 30 -8 6 -14 16 -14 21 0 5 -5 14 -10
21 -16 18 -90 135 -90 142 0 3 -5 11 -10 18 -16 19 -103 152 -99 152 2 0 -16
28 -39 62 -23 34 -42 67 -42 72 0 6 -4 11 -9 11 -5 0 -13 10 -17 23 -4 12 -9
24 -13 27 -9 7 -51 68 -51 74 0 3 -166 269 -210 336 -69 105 -210 334 -210
341 0 5 -4 9 -10 9 -5 0 -10 6 -10 13 0 8 -9 22 -20 32 -11 10 -20 22 -20 27
0 5 -16 32 -35 61 -19 28 -35 57 -35 64 0 6 -4 13 -8 15 -8 3 -102 144 -102
153 0 2 -27 44 -60 94 -33 50 -60 95 -60 101 0 5 -5 10 -11 10 -5 0 -8 4 -5 9
4 5 3 11 -1 13 -5 1 -20 21 -34 43 -30 46 -35 33 44 129 18 22 47 58 65 80 18
23 40 50 50 62 9 11 33 40 52 64 19 24 50 62 68 84 18 23 45 56 60 75 15 18
34 41 42 50 8 9 42 50 74 91 33 41 66 82 73 90 8 8 21 25 31 36 36 46 431 531
510 627 45 56 82 104 82 107 0 4 -239 7 -532 6 l-532 -1 -34 -45 c-18 -25 -47
-61 -63 -80 -16 -19 -33 -39 -37 -45 -29 -39 -77 -101 -82 -105 -3 -3 -31 -39
-62 -80 -32 -41 -69 -88 -82 -105 -14 -16 -33 -41 -43 -54 -10 -13 -30 -37
-44 -55 -14 -17 -63 -80 -110 -141 -46 -60 -90 -117 -97 -125 -17 -20 -71 -88
-102 -130 -14 -18 -38 -50 -55 -70 -16 -20 -41 -52 -55 -70 -25 -33 -139 -178
-185 -235 l-25 -30 0 30 c-1 17 -1 325 -1 686 l0 656 -455 0 -454 0 0 -1747z"/>
<path d="M4496 5231 c-2 -3 -18 -44 -36 -91 -18 -47 -39 -99 -46 -117 -8 -17
-14 -37 -14 -45 0 -8 -4 -18 -9 -23 -7 -8 -64 -153 -75 -190 -3 -10 -10 -29
-47 -122 -12 -29 -19 -54 -17 -56 1 -2 -2 -10 -8 -18 -6 -8 -17 -32 -24 -54
-7 -22 -17 -45 -22 -51 -5 -7 -10 -20 -12 -30 -3 -16 -46 -130 -110 -294 -34
-85 -41 -105 -38 -112 1 -5 -3 -8 -8 -8 -6 0 -10 -6 -10 -12 0 -14 -61 -179
-91 -245 -10 -24 -19 -49 -19 -57 0 -8 -4 -18 -10 -21 -5 -3 -10 -13 -10 -22
0 -8 -6 -29 -14 -46 -8 -18 -37 -93 -65 -167 -29 -74 -56 -144 -61 -155 -5
-11 -20 -51 -35 -90 -32 -85 -54 -142 -68 -175 -6 -14 -11 -27 -11 -30 -2 -8
-37 -103 -46 -125 -5 -11 -50 -128 -101 -260 -50 -132 -96 -253 -103 -270 -7
-16 -19 -46 -26 -65 -6 -19 -16 -44 -20 -55 -4 -11 -20 -51 -35 -90 -15 -38
-30 -79 -35 -90 -4 -11 -13 -33 -20 -50 -7 -16 -15 -39 -17 -49 -2 -11 -7 -24
-11 -30 -5 -6 -15 -31 -22 -56 -8 -25 -17 -47 -21 -50 -3 -3 -9 -19 -13 -36
l-7 -31 555 1 555 0 59 155 c32 86 63 165 67 176 5 11 9 22 10 25 0 3 10 29
20 58 l20 52 95 0 c120 1 1101 1 1116 0 7 0 14 -10 17 -22 6 -27 92 -253 108
-283 5 -12 11 -27 13 -35 1 -8 10 -32 19 -54 9 -21 17 -45 17 -52 0 -8 3 -15
8 -16 23 -4 1112 -3 1112 1 0 6 -45 128 -65 176 -5 11 -9 22 -10 25 -1 3 -5
14 -10 25 -29 74 -57 148 -75 200 -12 33 -28 74 -35 90 -8 17 -39 95 -69 175
-91 238 -208 543 -219 570 -6 14 -11 27 -11 30 -1 5 -21 58 -36 95 -4 11 -22
58 -40 105 -38 103 -42 113 -66 170 -11 24 -19 47 -19 50 0 4 -54 146 -75 195
-4 11 -26 67 -48 125 -71 186 -91 239 -118 308 -14 37 -29 76 -34 87 -4 11
-22 58 -40 105 -18 47 -36 94 -40 105 -22 51 -100 256 -100 261 0 3 -7 20 -15
37 -8 18 -20 50 -28 72 -15 43 -162 426 -176 461 -9 21 -11 21 -565 21 -306 0
-558 -3 -560 -6z m659 -1701 c20 -52 42 -108 50 -125 7 -16 17 -42 20 -58 4
-15 11 -30 16 -33 5 -3 9 -15 9 -28 0 -12 4 -26 8 -32 5 -5 19 -38 32 -74 13
-36 31 -83 41 -105 31 -72 50 -127 46 -132 -6 -6 -637 -6 -643 0 -3 2 1 17 7
33 7 16 13 34 14 39 3 11 58 148 81 202 8 17 14 36 14 42 0 6 5 19 10 29 6 9
43 103 83 207 41 105 77 199 82 210 5 11 9 22 9 25 1 3 8 16 15 29 13 23 14
21 42 -55 15 -43 44 -122 64 -174z"/>
<path d="M8938 4604 c-3 -2 -36 -6 -74 -8 -38 -3 -91 -9 -119 -15 -108 -22
-95 -19 -170 -47 -11 -4 -25 -8 -32 -10 -22 -4 -157 -76 -203 -107 -118 -80
-249 -207 -294 -286 -5 -9 -16 -22 -23 -29 -18 -18 -124 -234 -118 -240 3 -3
1 -10 -4 -16 -8 -10 -31 -95 -46 -173 -4 -18 -8 -60 -10 -95 -2 -35 -5 -65 -6
-68 -1 -3 0 -9 1 -15 1 -5 3 -41 6 -80 6 -107 14 -153 44 -250 74 -236 204
-419 402 -566 117 -87 315 -177 428 -194 14 -3 36 -7 50 -10 45 -11 263 -14
320 -5 112 17 132 22 188 41 31 11 64 21 72 23 25 6 114 50 128 64 7 6 19 12
25 12 18 0 185 128 237 181 47 49 99 111 114 138 5 9 15 22 22 29 44 43 174
368 158 393 -2 4 -1 10 4 13 11 7 16 64 16 206 0 155 -7 209 -45 330 -62 201
-180 378 -345 520 -40 36 -164 121 -164 114 0 -3 -12 3 -27 13 -56 37 -200 92
-283 107 -19 3 -46 8 -60 11 -14 3 -52 7 -85 10 -33 2 -70 6 -82 9 -11 2 -23
3 -25 0z"/>
</g>
</svg>
