<svg viewBox="0 0 249 62" xmlns="http://www.w3.org/2000/svg" xml:space="preserve" style="fill-rule:evenodd;clip-rule:evenodd;stroke-linejoin:round;stroke-miterlimit:2"><path d="M300.736 270.641h7.05v-5.1c0-1.434.483-2.642 1.45-3.625.967-.984 2.167-1.475 3.6-1.475h10.1v6h-7.5c-.9 0-1.35.5-1.35 1.5v2.7h9.75v6h-9.75v18.8h-6.3v-18.8h-7.05v-6Z" style="fill-rule:nonzero" transform="translate(-530.833 -459.708) scale(1.76512)"/><path d="M330.336 270.641h10.5v3.6h.9c.467-1.367 1.258-2.425 2.375-3.175s2.458-1.125 4.025-1.125c2.467 0 4.45.775 5.95 2.325 1.5 1.55 2.25 3.908 2.25 7.075v1.1l-6.5.6v-.7c0-1.367-.35-2.459-1.05-3.275-.7-.817-1.75-1.225-3.15-1.225s-2.5.483-3.3 1.45c-.8.966-1.2 2.35-1.2 4.15v8h5.7v6h-17.1v-6h5.1v-12.8h-4.5v-6Z" style="fill-rule:nonzero" transform="translate(-536.665 -459.708) scale(1.76512)"/><path d="M367.686 285.091c.033.733.208 1.408.525 2.025.317.616.75 1.15 1.3 1.6.55.45 1.183.8 1.9 1.05.717.25 1.475.375 2.275.375 1.567 0 2.767-.275 3.6-.825.833-.55 1.433-1.209 1.8-1.975l5.4 3c-.3.633-.717 1.291-1.25 1.975-.533.683-1.225 1.308-2.075 1.875-.85.566-1.883 1.033-3.1 1.4-1.217.366-2.642.55-4.275.55-1.867 0-3.567-.3-5.1-.9a11.287 11.287 0 0 1-3.975-2.6c-1.117-1.134-1.983-2.517-2.6-4.15-.617-1.634-.925-3.484-.925-5.55v-.3c0-1.9.325-3.634.975-5.2.65-1.567 1.542-2.9 2.675-4a12.272 12.272 0 0 1 3.975-2.575c1.517-.617 3.142-.925 4.875-.925 2.133 0 3.967.375 5.5 1.125s2.8 1.7 3.8 2.85c1 1.15 1.733 2.416 2.2 3.8.467 1.383.7 2.725.7 4.025v3.35h-18.2Zm5.95-9.45c-1.6 0-2.9.408-3.9 1.225-1 .816-1.65 1.758-1.95 2.825h11.7c-.2-1.167-.825-2.134-1.875-2.9-1.05-.767-2.375-1.15-3.975-1.15Z" style="fill-rule:nonzero" transform="matrix(1.76512 0 0 1.71796 -540.27 -446.978)"/><path d="M408.786 291.841c-.667 1.566-1.6 2.675-2.8 3.325-1.2.65-2.6.975-4.2.975-1.5 0-2.908-.284-4.225-.85a10.003 10.003 0 0 1-3.475-2.5c-1-1.1-1.792-2.434-2.375-4-.583-1.567-.875-3.35-.875-5.35v-.8c0-1.967.283-3.734.85-5.3.567-1.567 1.333-2.9 2.3-4a9.929 9.929 0 0 1 3.375-2.525 9.838 9.838 0 0 1 4.125-.875c1.767 0 3.192.3 4.275.9 1.083.6 1.942 1.533 2.575 2.8h.9v-3h6.3v17.3c0 1 .45 1.5 1.35 1.5h.95v6.7h-4.3c-1.133 0-2.058-.334-2.775-1-.717-.667-1.075-2.234-1.075-3.3h-.9Zm-5.6-1.7c1.833 0 3.3-.609 4.4-1.825 1.1-1.217 1.65-2.875 1.65-4.975v-.6c0-2.1-.55-3.759-1.65-4.975-1.1-1.217-2.567-1.825-4.4-1.825-1.833 0-3.3.608-4.4 1.825-1.1 1.216-1.65 2.875-1.65 4.975v.6c0 2.1.55 3.758 1.65 4.975 1.1 1.216 2.567 1.825 4.4 1.825Z" style="fill-rule:nonzero" transform="matrix(1.76512 0 0 1.71796 -543.923 -446.978)"/><path d="M448.236 295.441h-6.3v-17.4c0-.7-.175-1.225-.525-1.575-.35-.35-.808-.525-1.375-.525-.667 0-1.192.2-1.575.6-.383.4-.575 1-.575 1.8v17.1h-6.3v-17.4c0-.7-.192-1.225-.575-1.575a1.969 1.969 0 0 0-1.375-.525c-.6 0-1.1.2-1.5.6-.4.4-.6 1-.6 1.8v17.1h-6.3v-24.8h6.3v2.4h.9c.2-.9.658-1.642 1.375-2.225.717-.584 1.658-.875 2.825-.875 1.1 0 2.033.291 2.8.875a4.255 4.255 0 0 1 1.55 2.225h.9c.267-.9.825-1.642 1.675-2.225.85-.584 1.908-.875 3.175-.875 1.667 0 3 .558 4 1.675 1 1.116 1.5 2.658 1.5 4.625v19.2Z" style="fill:#0070ff;fill-rule:nonzero" transform="translate(-542.86 -459.708) scale(1.76512)"/></svg>