<svg viewBox="0 0 136 93" xmlns="http://www.w3.org/2000/svg" xml:space="preserve" style="fill-rule:evenodd;clip-rule:evenodd;stroke-linejoin:round;stroke-miterlimit:2"><path d="M494.109 485.437h11.349v-11.574l4.154-4.96 10.354 16.534h13.572l-16.029-25.438 14.859-18.251h-13.396l-13.514 17.234v-17.234h-11.349v43.689Zm73.007 0h13.928l-16.789-43.689h-13.928l-16.789 43.689h13.927l2.226-5.85h15.199l2.226 5.85Zm-13.927-14.944 4.134-10.621 4.07 10.621h-8.204Zm-19.651-34.078-10.43-14.818c5.342-2.48 8.649-7.377 8.649-13.609 0-8.967-6.932-15.263-16.725-15.263h-20.923v43.69h12.337v-13.164h3.816l9.221 13.164h14.055Zm33.578 0h13.928l-16.789-43.69h-13.928l-16.789 43.69h13.927l2.226-5.851h15.199l2.226 5.851Zm14.021 0h12.337v-23.403l11.702 20.859 11.701-20.859v23.403h12.338v-43.69h-12.338l-11.701 20.859-11.702-20.859h-12.337v43.69Zm-27.948-14.945 4.134-10.62 4.07 10.62h-8.204Zm-46.743-17.552h7.568c2.926 0 5.024 1.717 5.024 4.07s-2.098 4.07-5.024 4.07h-7.568v-8.14Z" style="fill:#404040;fill-rule:nonzero" transform="translate(-494.109 -392.725)"/><circle cx="326.046" cy="453.111" r="92.175" style="fill:#bb815b" transform="matrix(.15052 0 0 .15052 62.8 2.663)"/></svg>