<?xml version="1.0" encoding="UTF-8" standalone="no"?>
<!DOCTYPE svg PUBLIC "-//W3C//DTD SVG 1.1//EN" "http://www.w3.org/Graphics/SVG/1.1/DTD/svg11.dtd">
<svg width="100%" height="100%" viewBox="0 0 48 46" version="1.1" xmlns="http://www.w3.org/2000/svg" xmlns:xlink="http://www.w3.org/1999/xlink" xml:space="preserve" xmlns:serif="http://www.serif.com/" style="fill-rule:evenodd;clip-rule:evenodd;stroke-linejoin:round;stroke-miterlimit:2;">
    <circle cx="23.829" cy="22.505" r="22.505" style="fill:rgb(0,112,255);"/>
    <g transform="matrix(0.768711,0,0,0.768711,-310.357,-194.802)">
        <path d="M448.236,295.441L441.936,295.441L441.936,278.041C441.936,277.341 441.761,276.816 441.411,276.466C441.061,276.116 440.603,275.941 440.036,275.941C439.369,275.941 438.844,276.141 438.461,276.541C438.078,276.941 437.886,277.541 437.886,278.341L437.886,295.441L431.586,295.441L431.586,278.041C431.586,277.341 431.394,276.816 431.011,276.466C430.628,276.116 430.169,275.941 429.636,275.941C429.036,275.941 428.536,276.141 428.136,276.541C427.736,276.941 427.536,277.541 427.536,278.341L427.536,295.441L421.236,295.441L421.236,270.641L427.536,270.641L427.536,273.041L428.436,273.041C428.636,272.141 429.094,271.399 429.811,270.816C430.528,270.232 431.469,269.941 432.636,269.941C433.736,269.941 434.669,270.232 435.436,270.816C436.203,271.399 436.719,272.141 436.986,273.041L437.886,273.041C438.153,272.141 438.711,271.399 439.561,270.816C440.411,270.232 441.469,269.941 442.736,269.941C444.403,269.941 445.736,270.499 446.736,271.616C447.736,272.732 448.236,274.274 448.236,276.241L448.236,295.441Z" style="fill:white;fill-rule:nonzero;"/>
    </g>
</svg>
